<svg width="45" height="50" viewBox="0 0 45 50" fill="none" xmlns="http://www.w3.org/2000/svg">
<path d="M0.851562 6.09451L27.623 16.8031L44.0477 10.0889C44.1541 10.0464 44.1517 9.89501 44.0429 9.8548L17.6546 0L0.851562 6.09451Z" fill="#5A46C8"/>
<path d="M26.6769 36.3022L25.7356 49.8038L0.515625 38.731L16.64 32.1399L26.6769 36.3022Z" fill="#4D4D4D"/>
<path d="M42.5874 42.7988L26.4157 50.0001L26.3164 49.9551L27.2624 36.4441L42.5874 42.7988Z" fill="#4D4D4D"/>
<path d="M42.8746 34.448L30.8984 29.7109L43.9412 20.5183L42.8746 34.448Z" fill="#4D4D4D"/>
<path d="M1.19075 13.958L13.5264 18.9386L0.566406 29.2262L1.19075 13.958Z" fill="#5A46C8"/>
<path d="M28.1502 17.2668L44.388 10.5455C44.4377 10.5242 44.4779 10.5928 44.433 10.6259L16.4649 31.5582L0 38.3693L28.1478 17.2668H28.1502Z" fill="#989898"/>
</svg>
